Whether he is battling diamond thieves or jungle beasts, Jane is right by his side - and so are their friends Terk and Tantor. They may come from different worlds, but as a team they can't be beat. In the midst of all the excitement, Tarzan shows Jane that he understands her world better than she ever imagined...

The laughs fly as fast as the action in Disney's 'Tarzan And Jane'!

Format : MPEG-4
Format profile : Base Media / Version 2
Codec ID : mp42
File size : 800 MiB
Duration : 1h 12mn
Overall bit rate : 1 546 Kbps
Encoded date : UTC 2009-08-19 09:45:55
Tagged date : UTC 2009-08-19 12:40:59
Writing application : HandBrake 0.9.3 2008112300

Video
ID                               : 1
Format                           : AVC
Format/Info                      : Advanced Video Codec
Format profile                   : Main@L4.0
Format settings, CABAC           : Yes
Format settings, ReFrames        : 3 frames
Codec ID                         : avc1
Codec ID/Info                    : Advanced Video Coding
Duration                         : 1h 12mn
Bit rate mode                    : Variable
Bit rate                         : 1 383 Kbps
Width                            : 684 pixels
Height                           : 576 pixels
Display aspect ratio             : 1.689
Frame rate mode                  : Variable
Frame rate                       : 25.000 fps
Minimum frame rate               : 16.667 fps
Maximum frame rate               : 25.000 fps
Resolution                       : 24 bits
Colorimetry                      : 4:2:0
Scan type                        : Progressive
Bits/(Pixel*Frame)               : 0.140
Stream size                      : 715 MiB (89%)
Writing library                  : x264 core 65

Audio
ID                               : 2
Format                           : AAC
Format/Info                      : Advanced Audio Codec
Format version                   : Version 4
Format profile                   : LC
Format settings, SBR             : No
Codec ID                         : 40
Duration                         : 1h 12mn
Bit rate mode                    : Variable
Bit rate                         : 160 Kbps
Maximum bit rate                 : 192 Kbps
Channel(s)                       : 2 channels
Channel positions                : L R
Sampling rate                    : 48.0 KHz
Resolution                       : 16 bits
Stream size                      : 82.5 MiB (10%)
Language                         : English
Encoded date                     : UTC 2009-08-19 09:45:55
Tagged date                      : UTC 2009-08-19 12:40:58

